# xmcd
# Copyright (C) 1995-1998 Ti Kan
#
# Track frame offsets:
#       150
#       23186
#       35834
#       48284
#       65501
#       82645
#       95657
#       113056
#       122166
#       138723
#       153830
#       174679
#       189752
#       209592
#       224889
#
# Disc length: 3288 seconds
#
# Revision: 0
# Processed by: cddbd v1.5.2PL0 Copyright (c) Steve Scherf et al.
# Submitted via: CD-Transfer v1.0
#
DISCID=d90cd60f
DTITLE=Monsters Of Folk - J. James, M. Mogis, C. Oberst, M. Ward
DYEAR=09
DGENRE=
TTITLE0=Dear God
TTITLE1=Say Please
TTITLE2=Whole Lotta Losin
TTITLE3=Temazcal
TTITLE4=Right Place, The
TTITLE5=Baby Boomer
TTITLE6=Man Named Truth
TTITLE7=Goodway
TTITLE8=Ahead Of The Curve
TTITLE9=Slow Down Jo
TTITLE10=Losin Yo Head
TTITLE11=Magic Marker
TTITLE12=Map Of The World
TTITLE13=Sandman, The Breakman And Me
TTITLE14=His Master's Voice
EXTD=
EXTT0=
EXTT1=
EXTT2=
EXTT3=
EXTT4=
EXTT5=
EXTT6=
EXTT7=
EXTT8=
EXTT9=
EXTT10=
EXTT11=
EXTT12=
EXTT13=
EXTT14=
PLAYORDER=
